<?xml version="1.0" standalone="no"?>
<!DOCTYPE svg PUBLIC "-//W3C//DTD SVG 20010904//EN"
 "http://www.w3.org/TR/2001/REC-SVG-20010904/DTD/svg10.dtd">
<svg version="1.0" xmlns="http://www.w3.org/2000/svg"
 width="400.000000pt" height="400.000000pt" viewBox="0 0 400.000000 400.000000"
 preserveAspectRatio="xMidYMid meet">
<metadata>
Created by potrace 1.14, written by Peter Selinger 2001-2017
</metadata>
<g transform="translate(0.000000,400.000000) scale(0.100000,-0.100000)"
fill="#000000" stroke="none">
<path d="M1480 3490 c-289 -26 -510 -97 -595 -192 -41 -45 -45 -86 -15 -135
21 -35 81 -83 129 -103 27 -11 31 -19 37 -61 5 -34 11 -49 22 -49 15 0 13 29
-3 72 -7 17 -4 17 33 4 62 -22 216 -53 330 -67 l103 -12 -7 -55 c-5 -42 -4
-54 6 -50 11 3 17 28 23 91 1 18 22 23 31 8 4 -5 44 -7 91 -4 74 4 85 2 85
-12 0 -9 6 -15 13 -12 6 2 12 10 12 18 0 10 16 15 60 17 l60 2 -24 -19 c-26
-20 -21 -41 8 -41 20 0 37 16 43 40 4 20 19 30 46 30 18 0 23 -5 20 -22 -2
-11 2 -23 9 -25 7 -2 13 8 15 24 3 25 8 29 52 36 63 10 76 5 76 -33 0 -16 5
-30 10 -30 17 0 22 24 11 52 -10 25 -8 27 42 38 29 7 90 27 137 45 68 27 103
34 178 37 l92 4 6 -38 c9 -51 28 -50 21 2 -5 37 -3 41 21 46 254 56 360 157
270 259 -104 119 -459 176 -741 120 -59 -12 -82 -12 -165 0 -120 19 -415 27
-542 15z"/>
<path d="M2394 3035 c-10 -24 8 -35 41 -27 41 11 39 36 -3 40 -22 2 -34 -2
-38 -13z"/>
<path d="M2374 2985 c-4 -8 -3 -32 0 -53 4 -20 7 -49 7 -64 0 -19 5 -28 16
-28 13 0 14 7 9 38 -3 20 -6 56 -6 80 0 41 -15 57 -26 27z"/>
<path d="M2332 2983 c1 -4 -3 -17 -9 -28 -14 -25 -14 -73 0 -82 6 -4 8 0 4 10
-3 8 1 21 9 27 16 14 19 66 4 75 -6 4 -9 3 -8 -2z"/>
<path d="M1837 2833 c-4 -3 -7 -21 -7 -40 0 -43 25 -44 34 -2 8 41 -7 63 -27
42z"/>
<path d="M2260 2660 c0 -29 4 -40 15 -40 20 0 29 23 21 55 -11 42 -36 31 -36
-15z"/>
<path d="M1796 2583 c4 -43 8 -80 10 -82 10 -11 16 13 16 56 -1 96 -3 103 -18
103 -12 0 -14 -12 -8 -77z"/>
<path d="M1685 2387 c-8 -20 13 -69 28 -64 20 6 15 71 -6 75 -9 2 -19 -3 -22
-11z"/>
<path d="M2312 2263 c3 -38 24 -56 34 -29 9 24 -4 66 -22 66 -11 0 -14 -9 -12
-37z"/>
<path d="M2353 2163 c-20 -8 -15 -30 8 -36 11 -3 35 1 52 9 28 13 29 14 6 10
-18 -4 -29 -1 -33 9 -6 15 -12 17 -33 8z"/>
<path d="M1653 2063 c-7 -3 -13 -13 -13 -23 0 -10 -4 -21 -10 -25 -5 -3 -7
-12 -4 -20 10 -24 41 0 46 35 5 33 1 40 -19 33z"/>
<path d="M2310 1665 c-11 -20 -11 -28 -1 -38 10 -9 16 -7 31 13 11 14 20 31
20 38 0 22 -36 13 -50 -13z"/>
<path d="M1687 1633 c-8 -18 -6 -62 4 -69 6 -3 17 0 25 8 11 11 12 21 5 41
-10 26 -26 35 -34 20z"/>
</g>
</svg>
